<?xml version="1.0" standalone="no"?>
<!DOCTYPE svg PUBLIC "-//W3C//DTD SVG 20010904//EN"
 "http://www.w3.org/TR/2001/REC-SVG-20010904/DTD/svg10.dtd">
<svg version="1.0" xmlns="http://www.w3.org/2000/svg"
 width="615.000000pt" height="615.000000pt" viewBox="0 0 615.000000 615.000000"
 preserveAspectRatio="xMidYMid meet">
<metadata>
Created by potrace 1.11, written by Peter Selinger 2001-2013
</metadata>
<g transform="translate(0.000000,615.000000) scale(0.100000,-0.100000)"
fill="#000000" stroke="none">
<path d="M3330 4769 c-290 -24 -450 -72 -683 -207 l-79 -45 -101 32 c-145 44
-229 54 -397 48 -165 -6 -303 -31 -457 -82 -201 -67 -331 -152 -518 -340 -182
-182 -310 -386 -322 -513 -3 -31 -11 -66 -18 -77 -7 -12 -48 -38 -91 -59 -173
-86 -355 -323 -416 -542 -19 -68 -22 -105 -22 -264 0 -174 1 -190 26 -265 15
-44 41 -102 58 -128 16 -26 30 -49 30 -50 0 -2 -23 -27 -51 -57 -27 -30 -64
-84 -82 -120 -31 -63 -32 -68 -32 -195 1 -115 4 -138 27 -197 39 -104 86 -175
168 -259 54 -54 88 -80 120 -91 36 -11 46 -20 48 -40 l3 -25 346 -6 c450 -9
4065 -9 4476 0 l317 6 0 23 c0 16 13 30 45 48 99 59 212 239 236 379 29 171
-47 432 -174 599 -47 62 -48 69 -21 146 89 258 24 566 -173 811 -109 137 -221
220 -378 282 -118 46 -125 55 -135 179 -5 57 -15 119 -21 139 -46 141 -176
317 -334 451 -289 245 -644 387 -1049 420 -144 11 -194 11 -346 -1z m480 -134
c303 -55 566 -169 810 -353 166 -125 208 -167 244 -238 51 -102 61 -163 60
-369 0 -104 -2 -236 -5 -292 -4 -91 -2 -104 17 -129 31 -42 51 -52 70 -33 12
13 17 45 20 154 3 75 9 146 15 156 30 57 247 -18 376 -129 158 -136 258 -324
283 -530 22 -177 -18 -316 -124 -431 -67 -73 -146 -179 -146 -196 0 -24 40
-49 77 -48 30 1 46 12 105 70 l70 68 39 -45 c121 -137 182 -391 130 -541 -50
-145 -127 -258 -209 -306 -68 -40 -216 -52 -729 -60 l-433 -6 0 49 c0 98 52
232 115 303 118 130 309 225 509 251 142 19 228 -7 333 -103 89 -81 145 -97
197 -56 34 27 36 77 4 107 -34 31 -243 129 -318 148 -159 41 -420 -28 -603
-160 -83 -58 -194 -177 -237 -253 l-35 -61 -120 -4 c-156 -4 -207 -26 -285
-119 -96 -116 -38 -105 -602 -112 -271 -4 -554 -4 -628 0 -121 6 -131 7 -100
18 174 60 402 229 540 400 l53 64 137 -69 c160 -80 231 -105 360 -126 186 -31
362 -3 475 77 82 57 214 171 254 220 122 148 171 318 151 526 -15 159 -33 212
-107 311 -66 89 -74 107 -45 98 9 -2 49 -14 88 -25 185 -54 323 -60 591 -25
154 20 168 24 188 64 15 29 15 34 0 56 -20 30 -30 30 -173 -3 -99 -24 -139
-28 -257 -28 -168 1 -247 19 -400 95 -122 60 -206 128 -305 245 -154 184 -176
233 -221 495 -19 109 -21 146 -15 295 4 94 7 181 7 194 -2 57 -76 84 -105 39
-17 -26 -51 -155 -64 -243 -6 -40 -5 -99 3 -175 l12 -115 -26 -28 c-87 -94
-455 -275 -658 -323 -104 -25 -382 -22 -487 5 -193 51 -410 184 -594 366
l-122 121 6 46 c10 74 -2 115 -50 163 -78 77 -192 83 -272 13 -47 -41 -64 -77
-64 -135 0 -64 26 -111 84 -150 43 -29 56 -33 115 -33 l68 0 51 -63 c28 -35
101 -112 162 -170 100 -98 120 -112 226 -163 l117 -57 -73 -66 c-241 -218
-481 -368 -690 -430 -215 -65 -395 -77 -579 -42 -124 24 -186 51 -275 118 -38
29 -77 53 -85 53 -32 0 -81 -39 -81 -64 0 -33 20 -50 74 -66 67 -19 106 -66
106 -129 0 -42 -6 -57 -50 -117 -27 -38 -50 -77 -50 -88 0 -26 28 -56 52 -56
62 0 107 60 148 200 13 41 26 78 29 82 4 4 52 -1 107 -12 147 -28 341 -36 431
-17 109 24 313 108 514 213 204 106 333 194 463 313 101 91 104 92 225 65 l72
-16 -84 -47 c-46 -26 -99 -59 -119 -74 -95 -73 -151 -242 -87 -262 28 -9 116
39 252 136 193 139 280 175 557 229 183 35 219 35 390 -1 129 -28 339 -98 430
-144 58 -29 100 -62 183 -144 178 -174 246 -271 287 -409 19 -63 22 -90 18
-190 -4 -104 -8 -126 -37 -194 -75 -177 -209 -317 -385 -399 l-67 -31 -172 4
c-151 4 -182 8 -252 31 -137 45 -195 86 -357 252 -81 82 -157 168 -170 189
-13 22 -37 55 -55 73 -26 28 -38 33 -77 33 -45 0 -86 -24 -86 -50 0 -45 111
-202 224 -317 78 -81 80 -83 65 -109 -39 -74 -261 -245 -424 -327 -145 -73
-224 -92 -395 -92 -178 0 -262 20 -428 101 -96 47 -126 67 -192 132 -42 42
-87 97 -99 120 -27 53 -97 131 -129 143 -15 6 -35 4 -63 -7 -40 -17 -59 -39
-59 -69 0 -9 56 -74 125 -144 69 -70 125 -133 125 -139 0 -6 -28 -26 -62 -43
-83 -42 -120 -71 -152 -119 l-26 -40 -238 0 c-287 0 -293 2 -330 95 -83 208
-82 358 6 547 74 158 125 209 387 385 116 78 285 141 453 169 191 32 488 15
555 -30 42 -29 41 -57 -8 -166 -46 -101 -56 -171 -30 -200 10 -11 26 -20 36
-20 25 0 80 71 124 160 113 226 250 368 450 466 162 79 332 108 465 80 100
-21 223 -83 287 -144 53 -51 95 -124 159 -277 36 -85 42 -126 21 -147 -46 -45
-51 -133 -11 -193 32 -51 61 -72 116 -86 90 -24 191 20 233 102 19 35 19 100
1 142 -18 45 -79 95 -130 109 -42 11 -43 13 -65 83 -28 91 -71 154 -161 238
-178 165 -368 250 -555 249 -99 0 -332 -46 -428 -83 -134 -53 -231 -113 -315
-196 -46 -46 -88 -83 -93 -83 -5 0 -32 12 -60 26 -67 33 -163 51 -329 59 -217
11 -413 -24 -613 -110 -218 -93 -352 -195 -496 -377 -191 -240 -229 -333 -238
-585 l-6 -153 -36 0 c-82 0 -211 93 -282 202 -81 126 -92 300 -28 426 36 69
102 132 141 132 11 0 41 -18 66 -41 83 -73 139 -87 169 -43 12 19 11 25 -13
53 -15 18 -63 61 -108 96 -107 83 -162 143 -194 213 -25 54 -27 66 -26 197 0
125 3 149 28 225 55 167 130 283 275 423 164 159 245 193 496 208 149 8 161
11 184 33 28 28 23 52 -14 66 -46 17 -225 12 -334 -11 -57 -11 -105 -18 -108
-15 -8 7 37 116 90 218 61 120 229 332 312 396 212 161 401 241 660 278 159
23 254 8 445 -71 117 -49 178 -84 240 -139 132 -118 198 -142 239 -90 35 45
27 63 -64 154 -47 47 -85 90 -85 97 0 19 81 80 152 113 76 36 197 63 378 85
69 8 139 17 155 19 72 11 298 -5 435 -29z m-1940 -560 c32 -16 60 -61 60 -94
0 -55 -63 -111 -125 -111 -69 0 -125 53 -125 118 0 33 32 79 64 92 34 14 95
11 126 -5z m2064 -525 c27 -66 76 -145 163 -258 35 -46 62 -87 59 -89 -3 -3
-47 11 -99 31 -178 69 -393 122 -580 141 -38 4 -65 11 -60 15 4 4 46 20 93 35
108 36 161 60 285 129 55 31 104 55 108 53 5 -1 18 -27 31 -57z m95 -1276 c79
-66 27 -187 -79 -186 -61 1 -96 19 -114 57 -25 52 -20 83 18 121 30 30 40 34
89 34 45 0 61 -5 86 -26z m362 -734 c26 -15 24 -46 -9 -105 l-27 -50 -65 -8
c-130 -15 -162 9 -116 87 35 60 78 86 144 86 29 0 62 -5 73 -10z m-2490 -97
c51 -27 94 -53 96 -59 8 -24 -379 -25 -393 -2 -14 22 53 69 131 94 60 19 66
18 166 -33z"/>
</g>
</svg>
